<?xml version="1.0" standalone="no"?>
<!DOCTYPE svg PUBLIC "-//W3C//DTD SVG 20010904//EN"
 "http://www.w3.org/TR/2001/REC-SVG-20010904/DTD/svg10.dtd">
<svg version="1.0" xmlns="http://www.w3.org/2000/svg"
 width="512.000000pt" height="512.000000pt" viewBox="0 0 512.000000 512.000000"
 preserveAspectRatio="xMidYMid meet">
<metadata>
Created by potrace 1.14, written by Peter Selinger 2001-2017
</metadata>
<g transform="translate(0.000000,512.000000) scale(0.100000,-0.100000)"
fill="#000000" stroke="none">
<path d="M2408 4935 c-2 -2 -34 -6 -73 -9 -38 -4 -81 -8 -95 -10 -14 -2 -47
-7 -75 -11 -27 -4 -53 -9 -56 -11 -4 -2 -23 -6 -43 -10 -21 -3 -60 -12 -89
-20 -29 -8 -61 -16 -72 -19 -47 -11 -211 -68 -222 -77 -7 -5 -17 -7 -23 -3 -5
3 -10 1 -10 -5 0 -6 -4 -8 -10 -5 -5 3 -10 1 -10 -4 0 -6 -9 -11 -20 -11 -11
0 -20 -4 -20 -10 0 -5 -9 -10 -19 -10 -11 0 -26 -7 -35 -15 -8 -8 -21 -15 -30
-15 -8 0 -22 -8 -32 -17 -10 -10 -18 -16 -18 -15 -2 6 -60 -22 -74 -35 -7 -7
-19 -13 -26 -13 -7 0 -21 -8 -32 -17 -10 -10 -32 -25 -49 -33 -31 -16 -56 -34
-87 -62 -10 -10 -20 -18 -23 -18 -3 0 -10 0 -17 0 -6 0 -9 -3 -5 -6 3 -4 -15
-21 -41 -39 -26 -17 -67 -49 -91 -71 -56 -50 -233 -224 -227 -224 2 0 -18 -24
-45 -52 -27 -29 -49 -56 -49 -61 0 -4 -13 -21 -30 -39 -16 -17 -30 -37 -30
-44 0 -8 -4 -14 -9 -14 -6 0 -22 -22 -38 -50 -15 -27 -31 -50 -35 -50 -5 0 -8
-7 -8 -15 0 -8 -5 -15 -12 -15 -6 0 -9 -3 -5 -6 3 -3 -9 -29 -27 -57 -37 -59
-116 -218 -116 -234 0 -6 -7 -16 -15 -23 -8 -7 -13 -16 -10 -20 3 -4 -6 -33
-20 -64 -14 -31 -22 -56 -20 -56 3 0 -1 -13 -10 -30 -9 -16 -13 -30 -9 -30 4
0 2 -6 -3 -12 -6 -7 -16 -38 -23 -68 -7 -30 -17 -66 -22 -80 -6 -14 -12 -41
-14 -60 -3 -34 -11 -75 -14 -75 -2 0 -10 -56 -15 -105 -2 -25 -4 -45 -5 -45
-4 0 -10 -86 -14 -190 -2 -66 -5 -124 -6 -130 -1 -5 -1 -12 0 -15 1 -3 4 -30
5 -60 3 -55 12 -143 18 -190 21 -144 31 -200 37 -200 3 0 7 -10 8 -22 2 -32 7
-60 16 -85 4 -12 9 -30 11 -40 2 -10 18 -58 35 -108 17 -49 34 -100 37 -112 3
-13 10 -23 15 -23 5 0 7 -4 3 -9 -3 -5 0 -15 7 -23 7 -7 14 -20 16 -28 2 -8
24 -57 50 -109 67 -132 74 -146 84 -149 4 -2 8 -8 8 -14 0 -5 14 -29 30 -53
17 -24 30 -48 30 -54 0 -6 7 -11 16 -11 8 0 13 -4 10 -8 -3 -5 27 -48 65 -96
95 -119 90 -113 126 -148 18 -17 30 -35 27 -39 -3 -5 -1 -9 5 -9 6 0 25 -16
42 -35 18 -19 35 -32 40 -30 4 3 10 -4 14 -15 3 -11 10 -20 13 -20 4 0 23 -15
42 -33 19 -18 58 -51 85 -72 28 -22 52 -43 53 -47 2 -5 8 -8 13 -8 6 0 19 -9
31 -20 12 -10 25 -17 30 -14 4 3 8 1 8 -4 0 -10 69 -58 84 -60 5 0 12 -4 15
-9 8 -12 92 -60 176 -101 39 -19 77 -38 85 -43 23 -14 64 -29 76 -28 4 0 10
-3 13 -8 7 -9 99 -45 119 -46 6 0 12 -4 12 -9 0 -5 4 -7 10 -3 5 3 17 1 27 -4
23 -12 130 -43 160 -47 12 -1 37 -7 55 -13 18 -5 51 -13 74 -16 22 -3 55 -9
72 -14 17 -5 33 -7 36 -4 3 3 13 2 23 -2 62 -25 435 -25 643 0 42 5 53 7 118
21 15 3 38 8 52 10 51 9 65 12 65 14 0 2 16 6 55 14 37 8 210 66 247 82 17 8
36 14 42 14 6 0 11 5 11 12 0 6 3 9 6 5 4 -3 24 3 45 14 22 11 39 16 39 12 0
-5 4 -3 8 3 4 6 39 26 77 44 39 19 72 37 73 42 2 4 8 6 13 2 5 -3 9 -1 9 3 0
5 25 22 55 38 30 17 55 33 55 38 0 4 7 7 15 7 8 0 15 5 15 10 0 6 5 10 10 10
6 0 16 4 23 10 7 5 47 37 90 71 106 82 118 92 211 184 93 93 164 170 187 205
9 14 28 37 42 52 14 16 23 28 20 28 -4 0 3 10 14 23 22 24 120 174 142 220 8
15 18 27 23 27 5 0 6 5 2 11 -3 6 -2 14 4 18 8 5 92 175 92 186 0 1 8 20 17
41 9 22 17 42 17 46 1 3 4 10 9 14 4 4 7 14 7 23 0 9 7 29 15 44 8 15 9 25 4
21 -6 -4 -4 4 4 17 9 13 17 35 19 49 2 14 6 30 9 35 4 6 10 28 14 50 5 22 10
45 11 50 16 56 45 239 41 256 -3 11 -2 19 2 19 4 0 8 19 10 42 5 88 4 405 -2
448 -4 25 -9 65 -12 90 -2 25 -7 56 -10 70 -3 14 -8 37 -10 53 -3 15 -7 37
-10 50 -4 23 -40 162 -54 212 -12 41 -65 181 -86 230 -10 22 -19 42 -20 45
-13 36 -40 87 -49 92 -6 4 -7 8 -1 8 7 0 7 3 0 8 -5 4 -28 42 -50 85 -22 42
-44 77 -48 77 -5 0 -5 5 -2 10 3 6 2 10 -3 10 -5 0 -17 16 -26 35 -9 19 -21
35 -26 35 -6 0 -10 7 -10 15 0 8 -5 15 -11 15 -5 0 -7 5 -4 10 3 6 2 10 -4 10
-6 0 -17 12 -25 28 -8 15 -28 41 -43 59 -15 17 -44 51 -63 74 -37 46 -165 175
-221 224 -75 66 -188 155 -197 155 -6 0 -12 4 -14 8 -4 11 -126 92 -138 92 -5
0 -10 3 -12 8 -6 13 -235 132 -255 132 -7 0 -13 4 -13 10 0 5 -3 9 -8 7 -4 -1
-25 5 -47 15 -50 20 -78 31 -87 32 -3 1 -10 4 -14 9 -4 4 -16 7 -26 7 -10 0
-18 4 -18 10 0 5 -6 7 -13 4 -7 -2 -29 2 -49 10 -19 8 -46 17 -59 19 -13 3
-44 11 -69 18 -25 7 -49 13 -55 14 -5 0 -30 4 -55 9 -87 15 -145 24 -215 32
-46 5 -383 13 -387 9z m356 -373 c5 -3 28 -7 50 -8 23 -2 57 -6 76 -10 19 -3
46 -8 60 -10 14 -3 32 -7 40 -11 8 -3 29 -7 47 -10 30 -3 196 -54 238 -72 11
-5 41 -17 67 -28 27 -10 48 -22 48 -26 0 -5 5 -5 11 -1 6 3 14 2 18 -3 3 -5
28 -19 54 -31 92 -43 344 -209 355 -234 2 -5 8 -6 13 -2 5 3 9 -2 9 -10 0 -9
4 -16 8 -16 5 0 29 -20 55 -44 26 -23 49 -41 52 -38 3 3 5 1 5 -5 0 -6 21 -32
48 -60 65 -67 103 -112 132 -153 13 -19 27 -37 30 -40 10 -8 75 -105 72 -108
-1 -1 7 -12 18 -24 11 -12 20 -28 20 -35 0 -7 5 -13 11 -13 5 0 8 -4 5 -9 -3
-5 1 -14 9 -21 8 -7 15 -19 15 -26 0 -8 5 -14 12 -14 6 0 9 -3 5 -6 -3 -4 7
-30 23 -59 16 -29 26 -55 23 -59 -4 -3 -2 -6 4 -6 6 0 13 -10 17 -23 3 -13 12
-40 21 -60 8 -20 15 -39 15 -42 0 -3 9 -29 19 -57 11 -29 25 -73 31 -98 12
-44 15 -57 26 -110 3 -14 7 -32 9 -40 2 -8 4 -15 5 -15 1 0 4 -24 6 -53 3 -30
9 -65 15 -78 6 -17 6 -23 -1 -19 -6 4 -7 -2 -1 -17 12 -33 12 -358 -1 -381 -8
-15 -7 -18 3 -12 8 5 10 4 5 -3 -4 -7 -9 -26 -10 -44 -6 -52 -17 -121 -22
-140 -6 -21 -14 -57 -18 -83 -13 -79 -108 -344 -147 -409 -10 -16 -16 -33 -13
-38 3 -4 1 -8 -4 -8 -6 0 -18 -20 -29 -45 -10 -25 -21 -45 -24 -45 -4 0 -12
-13 -19 -30 -7 -16 -16 -30 -21 -30 -5 0 -9 -7 -9 -15 0 -8 -5 -15 -11 -15 -5
0 -8 -4 -4 -9 3 -6 -3 -14 -12 -20 -10 -6 -14 -11 -10 -11 5 0 2 -6 -5 -14 -7
-8 -22 -26 -33 -42 -11 -15 -26 -33 -32 -40 -7 -7 -13 -17 -13 -22 0 -6 -7
-13 -16 -16 -8 -3 -12 -10 -9 -16 3 -5 -1 -10 -9 -10 -9 0 -16 -4 -16 -9 0
-20 -204 -216 -285 -275 -22 -16 -42 -32 -45 -35 -13 -17 -129 -89 -134 -84
-3 4 -6 2 -6 -4 0 -6 -19 -21 -42 -34 -117 -62 -194 -99 -205 -99 -7 0 -13 -5
-13 -12 0 -6 -3 -9 -6 -6 -3 4 -30 -5 -60 -18 -30 -13 -54 -21 -54 -19 0 3
-10 0 -22 -7 -13 -6 -27 -13 -33 -14 -5 -2 -19 -5 -30 -8 -82 -22 -102 -27
-118 -31 -10 -2 -26 -6 -35 -9 -9 -3 -33 -7 -52 -10 -98 -15 -151 -26 -159
-31 -5 -3 -13 -1 -16 5 -4 7 -11 8 -18 2 -21 -17 -415 -6 -517 14 -19 4 -44 8
-55 10 -11 1 -55 12 -98 23 -42 12 -85 23 -95 25 -9 1 -24 6 -32 9 -8 3 -49
17 -90 32 -73 27 -280 122 -290 134 -3 4 -22 15 -43 26 -21 11 -46 27 -56 35
-9 8 -23 16 -30 18 -7 1 -27 16 -44 32 -18 17 -35 30 -39 30 -9 0 -39 24 -74
58 -13 13 -24 21 -24 18 0 -10 -206 200 -250 254 -24 30 -50 61 -59 68 -8 6
-12 12 -8 12 7 0 -1 11 -31 45 -7 8 -11 15 -7 15 4 0 -1 7 -9 16 -9 8 -28 36
-43 62 -15 26 -30 49 -33 52 -3 3 -12 19 -20 35 -8 17 -18 32 -21 35 -4 3 -9
14 -11 25 -1 11 -9 26 -16 34 -7 7 -16 26 -19 42 -3 16 -9 29 -14 29 -5 0 -9
8 -9 18 0 10 -4 22 -9 28 -5 5 -11 18 -13 29 -1 11 -5 22 -8 25 -9 8 -50 136
-50 154 0 9 -5 16 -11 16 -5 0 -8 3 -5 8 2 4 -4 43 -15 87 -10 44 -21 103 -25
130 -3 28 -7 59 -8 71 -2 11 -7 27 -11 34 -6 9 -4 11 6 5 11 -7 12 -6 2 6 -9
11 -11 68 -9 204 4 201 9 270 31 375 3 14 8 41 12 60 9 46 10 49 13 55 1 3 3
9 4 14 0 5 4 12 8 16 4 4 4 13 1 21 -3 8 0 14 7 14 6 0 9 4 5 10 -3 5 1 25 9
44 8 19 12 37 8 40 -3 3 1 6 8 6 7 0 11 3 8 6 -3 3 5 33 19 67 36 89 45 112
43 116 -1 2 2 7 7 10 4 3 21 33 38 66 16 33 32 62 35 65 3 3 13 21 23 40 21
42 131 198 184 260 47 55 233 245 233 237 0 -4 19 12 43 33 23 22 48 40 55 40
7 0 11 4 8 9 -3 5 8 14 24 21 17 7 30 16 30 21 0 5 7 9 15 9 8 0 15 4 15 9 0
5 14 14 30 21 17 7 30 16 30 21 0 5 7 9 15 9 8 0 15 5 15 12 0 6 3 8 6 5 4 -4
19 2 33 12 14 9 43 25 63 34 20 10 40 22 43 27 4 6 10 8 15 5 5 -3 14 0 22 7
7 7 20 14 28 16 8 2 33 11 55 21 76 34 248 90 300 97 11 1 20 3 20 4 0 1 7 3
15 5 8 1 40 8 70 14 30 6 79 13 108 15 29 2 55 6 58 9 7 6 387 6 398 -1z"/>
<path d="M3245 3572 c-3 -3 -11 -7 -18 -8 -25 -4 -42 -9 -47 -14 -9 -9 -155
-70 -167 -70 -7 0 -13 -4 -13 -10 0 -5 -8 -10 -18 -10 -10 0 -23 -5 -30 -12
-7 -7 -12 -8 -12 -4 0 5 -7 3 -15 -4 -8 -7 -15 -9 -15 -4 0 5 -4 3 -9 -4 -4
-7 -14 -15 -22 -16 -8 -2 -31 -10 -51 -20 -21 -9 -42 -16 -48 -16 -5 0 -10 -5
-10 -10 0 -6 -3 -9 -7 -9 -5 1 -11 0 -15 -1 -5 -1 -11 -3 -15 -5 -5 -1 -19 -6
-33 -12 -14 -6 -29 -12 -35 -14 -5 -1 -36 -15 -67 -31 -31 -15 -60 -28 -64
-28 -4 0 -28 -9 -53 -21 -25 -11 -55 -25 -66 -29 -54 -24 -101 -43 -105 -45
-3 0 -27 -11 -54 -23 -27 -12 -51 -22 -53 -22 -7 0 -77 -33 -88 -42 -31 -24
-75 -67 -75 -73 0 -3 -7 -13 -15 -22 -8 -8 -13 -19 -10 -24 4 -5 1 -9 -4 -9
-6 0 -10 -3 -9 -7 1 -5 -4 -20 -10 -35 -7 -16 -17 -40 -24 -55 -6 -16 -11 -31
-10 -35 1 -5 -3 -8 -8 -8 -6 0 -10 -9 -10 -20 0 -11 -4 -20 -10 -20 -5 0 -9
-3 -8 -7 3 -13 -23 -83 -31 -83 -4 0 -8 -6 -8 -14 0 -7 -19 -58 -43 -112 -23
-55 -49 -115 -57 -134 -9 -19 -22 -49 -29 -67 -8 -17 -14 -36 -14 -42 0 -6 -5
-11 -10 -11 -6 0 -9 -3 -8 -7 3 -9 -61 -166 -71 -173 -3 -3 -7 -12 -9 -20 -1
-8 -7 -24 -11 -35 -47 -104 -58 -134 -53 -139 3 -3 1 -6 -5 -6 -27 0 -39 -194
-13 -210 7 -4 12 -11 12 -16 2 -35 77 -123 99 -116 8 3 11 1 6 -3 -12 -14 84
-41 137 -39 74 3 73 2 251 80 17 7 35 13 40 14 6 1 15 5 20 10 6 4 42 20 80
35 39 16 73 33 77 39 4 6 8 8 8 4 0 -4 26 4 58 18 31 14 66 29 77 33 11 5 38
17 60 27 22 10 42 19 45 19 3 1 19 7 35 15 17 7 44 19 60 26 17 7 56 24 89 38
32 14 62 24 66 21 4 -3 10 2 13 10 3 7 22 17 41 21 20 3 36 10 36 15 0 5 9 9
19 9 11 0 23 5 26 10 4 6 11 8 16 5 5 -4 9 -1 9 4 0 6 3 10 8 9 27 -8 134 82
147 123 4 10 10 19 14 19 4 0 8 7 9 15 1 8 3 22 4 30 1 8 4 15 8 15 3 0 12 17
20 38 7 20 26 66 43 101 16 35 30 70 31 76 1 7 8 20 15 29 7 9 11 16 7 16 -3
0 5 23 19 50 14 28 23 55 20 60 -4 6 -2 10 3 10 6 0 21 28 35 63 45 112 62
147 70 147 4 0 6 4 3 9 -3 5 8 39 25 77 32 70 51 115 54 124 0 3 8 21 17 40
53 117 78 183 80 210 1 16 6 30 11 30 4 0 6 4 3 8 -3 5 -8 24 -11 43 -10 50
-10 51 -27 89 -38 84 -129 140 -233 145 -35 2 -66 0 -70 -3z m-142 -498 c-9
-21 -17 -41 -18 -44 -1 -3 -9 -23 -19 -45 -10 -22 -19 -44 -20 -50 -1 -5 -14
-34 -29 -62 -15 -29 -25 -53 -22 -53 3 0 -3 -12 -12 -27 -10 -15 -17 -30 -17
-33 1 -3 -6 -23 -16 -45 -26 -58 -33 -79 -32 -87 1 -5 -2 -8 -8 -8 -5 0 -10
-9 -10 -20 0 -11 -4 -20 -8 -20 -5 0 -9 -6 -9 -12 0 -7 -11 -35 -23 -63 -13
-27 -24 -52 -24 -55 -1 -3 -12 -31 -26 -62 -23 -54 -59 -86 -81 -73 -5 4 -9 1
-9 -4 0 -6 -7 -11 -15 -11 -8 0 -15 -5 -15 -12 0 -6 -3 -9 -6 -6 -4 5 -102
-34 -224 -90 -19 -9 -39 -17 -45 -17 -5 -1 -32 -12 -60 -25 -139 -63 -161 -72
-170 -75 -5 -1 -27 -10 -47 -19 -21 -9 -40 -16 -43 -15 -4 0 -17 -7 -31 -15
-13 -9 -24 -14 -24 -10 0 4 -7 1 -15 -6 -26 -22 -29 -2 -7 44 12 24 22 48 22
55 0 6 4 11 8 11 5 0 9 6 9 13 0 6 15 46 33 87 77 178 82 189 86 209 1 8 8 17
14 21 7 4 11 10 11 14 -1 3 6 22 14 42 8 20 15 38 15 39 0 1 9 23 20 49 12 25
19 47 18 49 -2 1 4 14 13 27 8 14 23 46 33 73 10 26 22 47 27 47 4 0 33 11 64
25 30 14 80 36 110 50 31 14 57 25 59 25 2 0 21 8 42 17 22 9 42 16 47 15 4
-1 7 2 7 8 0 6 3 9 8 8 4 -1 18 4 32 12 14 7 26 13 28 11 1 -1 27 10 57 24 31
14 58 25 60 25 6 0 115 48 137 60 10 6 25 10 33 10 8 0 15 5 15 12 0 6 3 9 6
5 3 -3 20 1 37 8 18 7 33 12 35 11 1 -2 -5 -20 -15 -42z"/>
</g>
</svg>
